<svg xmlns="http://www.w3.org/2000/svg" width="52" height="71.5" viewBox="0 0 52 71.5"><path d="M29.25,24.194h19.5m0,36.111V49.472M39,60.306h.033m-9.783,0h.033M29.25,49.472h.033m9.717,0h.033M48.75,38.639h.033m-9.783,0h.033m-9.783,0h.033M22.75,74.75h32.5c3.59,0,6.5-3.233,6.5-7.222V16.972c0-3.989-2.91-7.222-6.5-7.222H22.75c-3.59,0-6.5,3.233-6.5,7.222V67.528C16.25,71.517,19.16,74.75,22.75,74.75Z" transform="translate(-13 -6.5)" fill="none" stroke="#8cc63f" stroke-linecap="round" stroke-linejoin="round" stroke-width="6.5"/></svg>