<svg xmlns="http://www.w3.org/2000/svg" width="90.071" height="71.5" viewBox="0 0 90.071 71.5"><path d="M74.75,34.821V25.536a9.286,9.286,0,0,0-9.286-9.286H19.036A9.286,9.286,0,0,0,9.75,25.536V53.393a9.286,9.286,0,0,0,9.286,9.286h9.286M37.607,81.25H84.036a9.286,9.286,0,0,0,9.286-9.286V44.107a9.286,9.286,0,0,0-9.286-9.286H37.607a9.286,9.286,0,0,0-9.286,9.286V71.964A9.286,9.286,0,0,0,37.607,81.25Zm32.5-23.214a9.286,9.286,0,1,1-9.286-9.286A9.286,9.286,0,0,1,70.107,58.036Z" transform="translate(-6.5 -13)" fill="none" stroke="#8cc63f" stroke-linecap="round" stroke-linejoin="round" stroke-width="6.5"/></svg>