<svg xmlns="http://www.w3.org/2000/svg" width="79.625" height="71.5" viewBox="0 0 79.625 71.5"><path d="M38.188,21.938H17.875A8.125,8.125,0,0,0,9.75,30.063V66.625a8.125,8.125,0,0,0,8.125,8.125H74.75a8.125,8.125,0,0,0,8.125-8.125V30.063a8.125,8.125,0,0,0-8.125-8.125H54.438m-16.25,0V17.875a8.125,8.125,0,0,1,16.25,0v4.063m-16.25,0a8.125,8.125,0,0,0,16.25,0m-20.312,32.5A8.125,8.125,0,1,0,26,46.313,8.125,8.125,0,0,0,34.125,54.438Zm0,0a12.192,12.192,0,0,1,11.494,8.125M34.125,54.438a12.193,12.193,0,0,0-11.494,8.125M58.5,42.25H70.688M58.5,58.5h8.125" transform="translate(-6.5 -6.5)" fill="none" stroke="#8cc63f" stroke-linecap="round" stroke-linejoin="round" stroke-width="6.5"/></svg>