<svg xmlns="http://www.w3.org/2000/svg" width="139.473" height="50.181" viewBox="0 0 139.473 50.181">
  <g id="logo" transform="translate(-279.703 -420.739)">
    <g id="Group_2" data-name="Group 2" transform="translate(311.298 420.739)">
      <g id="Group_1" data-name="Group 1" transform="translate(0)">
        <path id="Path_1" data-name="Path 1" d="M412.472,500.369a1.728,1.728,0,0,1-.769.392,3.814,3.814,0,0,1-.769.084h-4.222a1.916,1.916,0,0,1-.867-.181,1.855,1.855,0,0,1-.615-.489,2.87,2.87,0,0,1-.419-.7,5.927,5.927,0,0,1-.28-.808l-.587-2.733a6.873,6.873,0,0,1-1.4,1.826,11.394,11.394,0,0,1-2.418,1.771,15.265,15.265,0,0,1-3.313,1.338,15,15,0,0,1-4.082.529,12.458,12.458,0,0,1-5.647-1.23,12.218,12.218,0,0,1-4.152-3.354,14.815,14.815,0,0,1-2.558-4.963,20.6,20.6,0,0,1-.867-6.052V467.49a2.433,2.433,0,0,1,.461-1.608,1.823,1.823,0,0,1,1.468-.545H387.9a2.5,2.5,0,0,1,1.649.406,2.121,2.121,0,0,1,.447,1.581v18.219a5.731,5.731,0,0,0,.461,2.28,6.4,6.4,0,0,0,1.244,1.9,5.812,5.812,0,0,0,1.831,1.3,5.314,5.314,0,0,0,2.222.476,7.928,7.928,0,0,0,2.181-.337,7.111,7.111,0,0,0,2.181-1.049,5.969,5.969,0,0,0,1.677-1.833,5.128,5.128,0,0,0,.671-2.686V467.408a2.65,2.65,0,0,1,.182-.951,1.514,1.514,0,0,1,.545-.728,2.554,2.554,0,0,1,.685-.308,2.957,2.957,0,0,1,.741-.084h6.318a1.967,1.967,0,0,1,2.264,2.153v31.285a2.054,2.054,0,0,1-.237.979,1.758,1.758,0,0,1-.657.7Z" transform="translate(-379.512 -451.219)" fill="#005cff"/>
        <path id="Path_2" data-name="Path 2" d="M507.125,434.168a2.5,2.5,0,0,1,.447-1.51,1.774,1.774,0,0,1,1.537-.615h6.85a1.319,1.319,0,0,1,.587.154,2.09,2.09,0,0,1,.573.433,2.508,2.508,0,0,1,.447.671,2.042,2.042,0,0,1,.182.867v41.767a2.061,2.061,0,0,1-.6,1.607,2.221,2.221,0,0,1-1.552.545h-6.486a1.888,1.888,0,0,1-1.537-.545,2.481,2.481,0,0,1-.447-1.607Z" transform="translate(-466.728 -428.465)" fill="#005cff"/>
        <path id="Path_3" data-name="Path 3" d="M561.791,422.892a2.261,2.261,0,0,1,.5-1.664,2.176,2.176,0,0,1,1.565-.489h6.486a2.429,2.429,0,0,1,1.579.489,2.035,2.035,0,0,1,.6,1.664v5.451a2,2,0,0,1-.154.727,3.1,3.1,0,0,1-.434.754,2.359,2.359,0,0,1-.685.6,1.76,1.76,0,0,1-.908.237h-6.486q-2.069,0-2.068-2.32Zm0,14.146a2.418,2.418,0,0,1,.5-1.538,1.864,1.864,0,0,1,1.565-.643h6.4a1.99,1.99,0,0,1,.726.154,2.455,2.455,0,0,1,.727.447,2.918,2.918,0,0,1,.573.685,1.694,1.694,0,0,1,.237.895v31.171a2.087,2.087,0,0,1-.588,1.607,2.374,2.374,0,0,1-1.677.545h-6.4q-2.069,0-2.068-2.153Z" transform="translate(-504.089 -420.739)" fill="#005cff"/>
      </g>
    </g>
    <g id="Group_3" data-name="Group 3" transform="translate(384.037 434.857)">
      <path id="Path_4" data-name="Path 4" d="M609.317,499.643a1.031,1.031,0,0,1,.139-.766c.148-.25.279-.46.39-.626l11.083-15.621L610.43,467.7a4.124,4.124,0,0,1-.474-.779,1.411,1.411,0,0,1-.153-.766.837.837,0,0,1,.362-.584,1.849,1.849,0,0,1,1.072-.237h8.743a1.055,1.055,0,0,1,.821.4,12.961,12.961,0,0,1,.794,1.044l5.319,8.6q.528-.752,1.225-1.908t1.434-2.394q.738-1.239,1.42-2.409t1.184-1.977a4.444,4.444,0,0,1,.877-1.044,1.5,1.5,0,0,1,.961-.32h8.827a1.44,1.44,0,0,1,.626.139,1.115,1.115,0,0,1,.46.39.894.894,0,0,1,.139.585,1.331,1.331,0,0,1-.362.724l-10.888,15.371,10.832,15.148a5.985,5.985,0,0,1,.571,1,2.1,2.1,0,0,1,.209.975.982.982,0,0,1-.4.738,2.1,2.1,0,0,1-1.267.292h-9.022a2,2,0,0,1-1.866-1.448l-4.956-8.911-5.012,9.022a2.747,2.747,0,0,1-.78.975,1.525,1.525,0,0,1-.919.362h-9.69a1.116,1.116,0,0,1-1.141-.78Z" transform="translate(-609.294 -465.338)" fill="#005cff"/>
    </g>
    <path id="Path_5" data-name="Path 5" d="M306.16,469.912a2.618,2.618,0,0,0-1.7-.527l-.039.026v-.018h-5.345q-3.564,0-3.563-3.563v-10.71l0-.986h3.8a1.991,1.991,0,0,0,1.451-.544,2.308,2.308,0,0,0,.558-1.715v-5.384a2.094,2.094,0,0,0-.558-1.59,2.022,2.022,0,0,0-1.451-.53h-3.8v-4.5h0l.012-3.166a3.119,3.119,0,0,0-.349-1.576,1.464,1.464,0,0,0-1.381-.6h-.237a1.366,1.366,0,0,0-.265.028l-6.332,2.2a6.462,6.462,0,0,0-1.632.823,1.524,1.524,0,0,0-.572,1.3l-.028,5.5h-2.872a1.886,1.886,0,0,0-2.148,2.119v5.384q0,2.259,2.148,2.259h2.954v.105l10.686,10.686H284.818l0,1.89.021.025q.5,13.241,14.233,13.242h5.345v-.009l.039.007a1.9,1.9,0,0,0,.979-.256,2.535,2.535,0,0,0,.738-.648,3.321,3.321,0,0,0,.467-.813,2.16,2.16,0,0,0,.166-.783v-5.875A2.194,2.194,0,0,0,306.16,469.912Z" transform="translate(0 -9.423)" fill="#005cff"/>
    <path id="Path_6" data-name="Path 6" d="M295.643,496.625H306.4v10.757Z" transform="translate(-10.894 -51.864)" fill="#8cc63f"/>
  </g>
</svg>
